<!DOCTYPE svg PUBLIC "-//W3C//DTD SVG 1.1//EN" "http://www.w3.org/Graphics/SVG/1.1/DTD/svg11.dtd">
<!-- Uploaded to: SVG Repo, www.svgrepo.com, Transformed by: SVG Repo Mixer Tools -->
<svg version="1.1" id="Layer_1" xmlns="http://www.w3.org/2000/svg" xmlns:xlink="http://www.w3.org/1999/xlink" viewBox="0 0 512 512" xml:space="preserve" width="256px" height="256px" fill="#000000">
<g id="SVGRepo_bgCarrier" stroke-width="0"/>
<g id="SVGRepo_tracerCarrier" stroke-linecap="round" stroke-linejoin="round"/>
<g id="SVGRepo_iconCarrier"> <rect x="238.344" y="105.931" style="fill:#FFD782;" width="35.31" height="220.689"/> <path style="fill:#FFC36E;" d="M273.655,317.793h-35.31c-4.875,0-8.828,3.953-8.828,8.828v123.586h52.965V326.621 C282.482,321.746,278.531,317.793,273.655,317.793z"/> <g> <path style="fill:#FFD782;" d="M340.714,459.577l-58.232-18.198h-52.965l-58.231,18.197c-7.371,2.303-12.389,9.129-12.389,16.852 h194.206C353.103,468.706,348.084,461.88,340.714,459.577z"/> <circle style="fill:#FFD782;" cx="256" cy="35.311" r="26.483"/> </g> <g> <path style="fill:#F5B464;" d="M193.414,322.97l-87.483-192.462V97.104c0-4.875-3.953-8.828-8.828-8.828s-8.828,3.953-8.828,8.828 v33.404L0.793,322.97c-2.017,4.436-0.056,9.668,4.384,11.685c4.414,2.013,9.668,0.061,11.685-4.384l80.24-176.526l80.241,176.526 c1.479,3.254,4.685,5.181,8.039,5.176c1.224,0,2.465-0.254,3.647-0.793C193.469,332.638,195.431,327.405,193.414,322.97z"/> <path style="fill:#F5B464;" d="M511.207,322.97l-87.483-192.462V97.104c0-4.875-3.953-8.828-8.828-8.828s-8.828,3.953-8.828,8.828 v33.404l-87.482,192.462c-2.017,4.436-0.056,9.668,4.384,11.685c4.423,2.013,9.668,0.061,11.686-4.384l80.24-176.525 l80.241,176.526c1.479,3.254,4.685,5.181,8.039,5.176c1.224,0,2.465-0.254,3.647-0.793 C511.262,332.638,513.224,327.405,511.207,322.97z"/> </g> <path style="fill:#FFC36E;" d="M353.103,503.172H158.896c-4.875,0-8.828-3.953-8.828-8.828v-17.655H361.93v17.655 C361.93,499.22,357.979,503.172,353.103,503.172z"/> <g> <path style="fill:#F5B464;" d="M361.93,485.517H150.069c-4.875,0-8.828-3.953-8.828-8.828l0,0c0-4.875,3.953-8.828,8.828-8.828 H361.93c4.875,0,8.828,3.953,8.828,8.828l0,0C370.758,481.565,366.806,485.517,361.93,485.517z"/> <path style="fill:#F5B464;" d="M273.655,114.759h-35.31c-4.875,0-8.828-3.953-8.828-8.828l0,0c0-4.875,3.953-8.828,8.828-8.828 h35.31c4.875,0,8.828,3.953,8.828,8.828l0,0C282.482,110.807,278.531,114.759,273.655,114.759z"/> </g> <g> <circle style="fill:#FFD782;" cx="97.103" cy="132.414" r="17.655"/> <circle style="fill:#FFD782;" cx="414.896" cy="132.414" r="17.655"/> <path style="fill:#FFD782;" d="M185.379,317.793H8.828c-4.875,0-8.828,3.953-8.828,8.828c0,34.65,42.65,61.793,97.103,61.793 s97.103-27.143,97.103-61.793C194.207,321.746,190.254,317.793,185.379,317.793z"/> <path style="fill:#FFD782;" d="M503.171,317.793H326.62c-4.875,0-8.828,3.953-8.828,8.828c0,34.65,42.65,61.793,97.103,61.793 s97.103-27.143,97.103-61.793C511.999,321.746,508.046,317.793,503.171,317.793z"/> </g> <path style="fill:#FFC36E;" d="M425.175,78.219L273.655,52.966h-35.31L86.825,78.219c-4.256,0.71-7.377,4.393-7.377,8.707v1.35 c0,4.875,3.953,8.828,8.828,8.828h335.448c4.875,0,8.828-3.953,8.828-8.828v-1.35C432.551,82.612,429.431,78.929,425.175,78.219z"/> </g>
</svg>